<svg height="512pt" viewBox="-43 0 512 512.0005" width="512pt" xmlns="http://www.w3.org/2000/svg"><path d="m258.09375 405.238281c-9.359375 0-80.097656 0-89.734375 0-6.835937 0-12.425781 5.59375-12.425781 12.425781v12.007813c0 6.835937 5.589844 12.425781 12.425781 12.425781h89.734375c6.832031 0 12.425781-5.589844 12.425781-12.425781v-12.007813c0-6.832031-5.59375-12.425781-12.425781-12.425781zm0 0" fill="#554e56"/><path d="m258.09375 419.765625h-89.734375c-4.992187 0-9.3125-2.992187-11.28125-7.265625-.726563 1.578125-1.144531 3.324219-1.144531 5.164062v12.007813c0 6.835937 5.589844 12.425781 12.425781 12.425781h89.734375c6.832031 0 12.425781-5.589844 12.425781-12.425781v-12.007813c0-1.839843-.417969-3.585937-1.144531-5.164062-1.972656 4.273438-6.289062 7.265625-11.28125 7.265625zm0 0" fill="#433f43"/><path d="m418.375 370.703125-3.285156-10.140625c-17.207032-53.054688-54.429688-97.578125-103.984375-124.378906l-5.707031-3.085938v154.777344c0 .609375-.03125 1.207031-.089844 1.796875h99.007812c10 .003906 17.105469-9.585937 14.058594-18.96875zm0 0" fill="#ff646f"/><path d="m335.5625 251.570312c-7.761719-5.617187-15.921875-10.769531-24.457031-15.386718l-5.707031-3.085938v154.777344c0 .609375-.03125 1.207031-.089844 1.796875h30.253906zm0 0" fill="#ff4755"/><path d="m121.703125 387.875v-154.777344l-5.742187 3.085938c-49.878907 26.800781-87.34375 71.320312-104.664063 124.378906l-3.308594 10.140625c-3.0625 9.382813 4.085938 18.96875 14.152344 18.96875h99.65625c-.058594-.589844-.09375-1.1875-.09375-1.796875zm0 0" fill="#ff646f"/><path d="m38.117188 370.703125 3.308593-10.140625c14.363281-44.011719 42.605469-82.136719 80.277344-109.15625v-18.308594l-5.742187 3.085938c-49.878907 26.800781-87.34375 71.320312-104.664063 124.378906l-3.308594 10.140625c-3.0625 9.382813 4.089844 18.96875 14.152344 18.96875h30.125c-10.0625.003906-17.214844-9.585937-14.148437-18.96875zm0 0" fill="#ff4755"/><path d="m283 476.058594v-19.828125c0-8.320313-6.8125-15.128907-15.132812-15.128907h-109.28125c-8.324219 0-15.132813 6.808594-15.132813 15.128907v19.828125zm0 0" fill="#22a7ff"/><path d="m143.679688 453.726562c-.136719.816407-.226563 1.648438-.226563 2.503907v19.828125h139.546875v-19.828125c0-.855469-.089844-1.6875-.226562-2.503907zm0 0" fill="#0094fd"/><path d="m298.050781 92.886719-50.476562-67.550781c-8.140625-10.898438-20.757813-17.554688-34.347657-18.125-13.59375.574218-26.207031 7.226562-34.351562 18.125l-50.476562 67.550781c-5.84375 7.820312-9.003907 17.324219-9.003907 27.089843v231.007813h187.664063v-231.007813c0-9.765624-3.160156-19.269531-9.007813-27.089843zm0 0" fill="#d9edff"/><path d="m158.527344 92.886719 50.476562-67.550781c5.007813-6.699219 11.707032-11.789063 19.285156-14.855469-4.742187-1.917969-9.828124-3.050781-15.0625-3.269531-13.59375.570312-26.207031 7.226562-34.347656 18.125l-50.480468 67.546874c-5.84375 7.824219-9.003907 17.328126-9.003907 27.09375v231.007813h30.128907v-231.007813c-.003907-9.765624 3.15625-19.269531 9.003906-27.089843zm0 0" fill="#b4dbff"/><path d="m228.300781 349.984375v56.253906h60.390625c10.144532 0 18.367188-8.21875 18.367188-18.363281v-37.890625zm0 0" fill="#685e68"/><path d="m137.757812 406.238281h60.394532v-56.253906h-78.757813v37.890625c0 10.144531 8.222657 18.363281 18.363281 18.363281zm0 0" fill="#685e68"/><path d="m149.519531 387.875v-37.890625h-30.125v37.890625c0 10.144531 8.222657 18.363281 18.363281 18.363281h30.128907c-10.144531 0-18.367188-8.21875-18.367188-18.363281zm0 0" fill="#554e56"/><path d="m256.707031 146.816406c0 24.628906-19.964843 44.59375-44.589843 44.59375-24.628907 0-44.59375-19.964844-44.59375-44.59375s19.964843-44.59375 44.59375-44.59375c24.625 0 44.589843 19.964844 44.589843 44.59375zm0 0" fill="#60b8ff"/><path d="m197.648438 146.816406c0-19.339844 12.316406-35.800781 29.53125-41.980468-4.707032-1.6875-9.777344-2.613282-15.0625-2.613282-24.628907 0-44.59375 19.964844-44.59375 44.59375s19.964843 44.59375 44.59375 44.59375c5.285156 0 10.355468-.925781 15.0625-2.617187-17.214844-6.175781-29.53125-22.636719-29.53125-41.976563zm0 0" fill="#22a7ff"/><path d="m197.152344 244.511719v164.835937c0 6.277344 5.136718 11.414063 11.414062 11.414063h9.320313c6.277343 0 11.414062-5.136719 11.414062-11.414063v-164.835937c0-6.277344-5.136719-11.414063-11.414062-11.414063h-9.320313c-6.28125 0-11.414062 5.136719-11.414062 11.414063zm0 0" fill="#ff646f"/><path d="m219.277344 409.347656v-164.835937c0-3.910157 1.992187-7.375 5.011718-9.433594-1.832031-1.246094-4.035156-1.980469-6.402343-1.980469h-9.324219c-6.277344 0-11.414062 5.136719-11.414062 11.414063v164.835937c0 6.277344 5.136718 11.414063 11.414062 11.414063h9.324219c2.367187 0 4.570312-.734375 6.402343-1.980469-3.019531-2.058594-5.011718-5.523438-5.011718-9.433594zm0 0" fill="#ff4755"/><path d="m295.644531 474.058594h-164.835937c-6.277344 0-11.414063 5.136718-11.414063 11.414062v7.324219c0 6.277344 5.136719 11.414063 11.414063 11.414063h164.835937c6.277344 0 11.414063-5.136719 11.414063-11.414063v-7.324219c0-6.277344-5.136719-11.414062-11.414063-11.414062zm0 0" fill="#60b8ff"/><path d="m295.644531 483.875h-164.835937c-3.863282 0-7.289063-1.949219-9.355469-4.90625-1.292969 1.847656-2.058594 4.089844-2.058594 6.503906v7.324219c0 6.277344 5.136719 11.414063 11.414063 11.414063h164.835937c6.277344 0 11.414063-5.136719 11.414063-11.414063v-7.324219c0-2.414062-.765625-4.65625-2.058594-6.503906-2.070312 2.957031-5.496094 4.90625-9.355469 4.90625zm0 0" fill="#22a7ff"/><path d="m304.207031 88.6875-50.476562-67.550781c-9.535157-12.757813-24.128907-20.460938-40.042969-21.1289065-.210938-.01171875-.421875-.01171875-.632812 0-15.914063.6679685-30.507813 8.3710935-40.039063 21.1289065l-50.480469 67.550781c-6.769531 9.054688-10.496094 20.273438-10.496094 31.582031v108.679688c-54.449218 29.882812-90.609374 76.03125-107.734374 129.621093l-3.238282 10.140626c-4.550781 14.234374 6.046875 28.753906 20.996094 28.753906h91.710938c3.742187 9.679687 13.144531 16.566406 24.128906 16.566406h11.316406c-.402344 1.578125-.640625 3.222656-.640625 4.925781v10.007813c0 2.378906.441406 4.652344 1.207031 6.769531-8.042968 3.476563-13.6875 11.480469-13.6875 20.785156v10.332031h-5.144531c-10.429687 0-18.914063 8.484376-18.914063 18.914063v7.320313c0 10.429687 8.484376 18.914062 18.914063 18.914062h64.917969c4.140625 0 7.5-3.355469 7.5-7.5s-3.359375-7.5-7.5-7.5h-64.917969c-2.121094 0-3.914063-1.792969-3.914063-3.914062v-7.320313c0-2.121094 1.792969-3.914063 3.914063-3.914063h164.835937c2.121094 0 3.910157 1.792969 3.910157 3.914063v7.320313c0 2.121093-1.789063 3.914062-3.910157 3.914062h-64.917968c-4.144532 0-7.5 3.355469-7.5 7.5s3.355468 7.5 7.5 7.5h64.917968c10.429688 0 18.914063-8.484375 18.914063-18.914062v-7.320313c0-10.429687-8.484375-18.914063-18.914063-18.914063h-5.144531v-10.332031c0-9.304687-5.648437-17.308593-13.691406-20.785156.769531-2.117187 1.210937-4.390625 1.210937-6.769531v-10.007813c0-1.703125-.238281-3.347656-.644531-4.925781h11.316407c10.984374 0 20.386718-6.886719 24.128906-16.566406h91.710937c14.949219 0 25.550781-14.515625 21-28.753906l-3.238281-10.140626c-17.097656-53.5-53.191406-99.6875-107.738281-129.621093v-108.679688c.003906-11.308593-3.722657-22.527343-10.492188-31.582031zm-177.167969 31.582031c0-8.09375 2.667969-16.121093 7.511719-22.605469l50.480469-67.546874c6.761719-9.046876 17.074219-14.539063 28.339844-15.109376 11.265625.570313 21.582031 6.0625 28.34375 15.109376l50.476562 67.546874c4.84375 6.484376 7.511719 14.511719 7.511719 22.605469v222.503907h-63.753906v-97.96875c0-10.433594-8.484375-18.917969-18.914063-18.917969h-7.324218c-10.429688 0-18.914063 8.484375-18.914063 18.917969v97.96875h-63.753906c-.003907-44.785157-.003907-218.65625-.003907-222.503907zm93.90625 289.367188c0 2.121093-1.792968 3.914062-3.914062 3.914062h-7.320312c-2.121094 0-3.914063-1.792969-3.914063-3.914062 0-8.761719 0-158.398438 0-164.832031 0-2.121094 1.792969-3.914063 3.914063-3.914063h7.320312c2.121094 0 3.914062 1.792969 3.914062 3.914063zm-205.589843-36.363281 3.238281-10.136719c15.800781-49.445313 48.863281-90.757813 93.445312-116.96875v136.292969h-89.976562c-4.777344.003906-8.164062-4.632813-6.707031-9.1875zm111.683593 14.894531v-30.394531h63.757813v41.257812c-9.921875 0-43.019531 0-52.894531 0-6.007813 0-10.863282-4.894531-10.863282-10.863281zm24.058594 78.683593v-10.332031c0-4.207031 3.425782-7.628906 7.632813-7.628906h109.28125c4.210937 0 7.632812 3.421875 7.632812 7.628906v10.332031zm112.066406-47.894531v10.007813c0 2.667968-2.253906 4.925781-4.925781 4.925781h-89.734375c-2.671875 0-4.925781-2.257813-4.925781-4.925781v-10.007813c0-2.671875 2.253906-4.925781 4.925781-4.925781h22.808594c2.019531 8.441406 9.671875 14.519531 18.398438 14.519531h7.320312c8.753906 0 16.390625-6.113281 18.398438-14.519531h22.808593c2.671875 0 4.925781 2.253906 4.925781 4.925781zm25.675782-19.925781c-9.875 0-42.972656 0-52.894532 0v-41.257812h63.757813v30.394531c0 5.96875-4.855469 10.863281-10.863281 10.863281zm119.308594-35.894531 3.238281 10.140625c1.453125 4.550781-1.933594 9.1875-6.707031 9.1875h-89.976563c0-1.785156 0-135.1875 0-136.296875 44.578125 26.210937 77.644531 67.523437 93.445313 116.96875zm0 0"/><path d="m212.261719 199.203125c20.082031 0 38.027343-11.222656 46.839843-29.285156 1.816407-3.722657.269532-8.210938-3.453124-10.027344-3.722657-1.816406-8.214844-.269531-10.03125 3.453125-6.273438 12.863281-19.054688 20.855469-33.355469 20.855469-20.453125 0-37.09375-16.640625-37.09375-37.09375s16.640625-37.09375 37.09375-37.09375c15.449219 0 29.433593 9.734375 34.796875 24.21875 1.4375 3.886719 5.75 5.871093 9.636718 4.429687 3.886719-1.4375 5.867188-5.75 4.429688-9.636718-7.527344-20.34375-27.167969-34.011719-48.863281-34.011719-28.722657 0-52.09375 23.371093-52.09375 52.09375 0 28.726562 23.367187 52.097656 52.09375 52.097656zm0 0"/></svg>